<svg width="1200" height="116.8" xmlns="http://www.w3.org/2000/svg">

 <g>
  <title>background</title>
  <rect fill="none" id="canvas_background" height="118.8" width="1202" y="-1" x="-1"/>
 </g>
 <g>
  <title>Layer 1</title>
  <g id="svg_1">
   <g id="svg_2">
    <path id="svg_3" d="m951.7,93.1l0,-70.2c-7.7,-7.2 -17.9,-11.5 -29.1,-11.5c-16.7,0 -31.2,9.7 -38.6,24.1c-4.3,-2.2 -9.2,-3.5 -14.4,-3.5c-8.6,0 -16.3,3.4 -22.1,8.9c-4,-2 -8.5,-3.2 -13.3,-3.2c-13.6,0 -25.1,9.2 -28.7,21.6c-3.7,-1.7 -7.9,-2.6 -12.3,-2.6c-9.3,0 -17.6,4.3 -23.1,10.9c-3.1,-16.3 -17,-29.1 -33.8,-30.4c-11.4,-0.9 -21.7,3.3 -29.2,10.5c0.5,-7.2 -3.2,-14.3 -9.9,-17.9c-8.1,-4.3 -17.8,-2.2 -23.4,4.6c-1.7,-3.5 -4.4,-6.5 -8.1,-8.5c-4.9,-2.6 -10.3,-2.8 -15.2,-1.1c-2.2,-14.1 -14.4,-24.8 -29.1,-24.8c-8.1,0 -15.4,3.2 -20.8,8.5c-4.4,-2.6 -9.6,-4.2 -15.1,-4.2c-12.1,0 -22.5,7.2 -27.1,17.6c-3.5,-1.6 -7.4,-2.5 -11.5,-2.5c-11.9,0 -22,7.5 -25.9,18c-4,-1.2 -8.3,-1.8 -12.7,-1.8c-20.5,0 -37.8,13.7 -43.2,32.4l-4.8,0c-5.3,-10.9 -16.5,-18.5 -29.4,-18.5c-9.5,0 -18.1,4.1 -24,10.6c-4.1,-11.5 -15.1,-19.8 -28.1,-19.8c-5.5,0 -10.7,1.5 -15.2,4.2c-3.2,-1.3 -6.6,-2 -10.2,-2c-7.6,0 -14.5,3.1 -19.5,8c-7.8,-13.5 -22.3,-22.6 -39,-22.6c-23.2,0 -42.3,17.6 -44.7,40.1l-0.2,0l0,4.7l0,43l701.7,0l0,-22.6zm-280.7,-37.5c-0.1,-0.1 -0.2,-0.2 -0.3,-0.3c0.2,-0.3 0.5,-0.5 0.7,-0.8c0.1,0.2 0.2,0.4 0.3,0.6c-0.2,0.1 -0.5,0.3 -0.7,0.5z" fill="#FFFFFF"/>
   </g>
   <g id="svg_4">
    <path id="svg_5" d="m1200,28.5c-20.4,2.1 -37.1,16.5 -42.6,35.6l-5.3,0c-5.8,-12.1 -18.2,-20.5 -32.6,-20.5c-10.5,0 -20,4.5 -26.6,11.7c-4.5,-12.8 -16.7,-21.9 -31,-21.9c-6.1,0 -11.9,1.7 -16.8,4.6c-3.5,-1.4 -7.3,-2.2 -11.3,-2.2c-8.4,0 -16,3.4 -21.5,8.9c-8.6,-14.9 -24.7,-24.9 -43.1,-24.9c-25.7,0 -46.8,19.4 -49.4,44.4l-0.3,0l0,5.2l0,47.6l270.5,0l10,0" fill="#FFFFFF"/>
   </g>
   <g id="svg_6">
    <path id="svg_7" d="m0,116.8l10,0l273.6,0l0,-20.5l0,-64c-7,-6.5 -16.3,-10.5 -26.4,-10.5c-15.2,0 -28.4,8.9 -35.1,21.9c-3.9,-2 -8.4,-3.1 -13.1,-3.1c-7.8,0 -14.9,3.1 -20.1,8.1c-3.7,-1.8 -7.8,-2.9 -12.1,-2.9c-12.4,0 -22.9,8.3 -26.1,19.7c-3.4,-1.5 -7.2,-2.4 -11.1,-2.4c-8.5,0 -16,3.9 -21,10c-2.8,-14.9 -15.4,-26.5 -30.8,-27.7c-10.3,-0.8 -19.8,3 -26.5,9.5c0.4,-6.5 -2.9,-13 -9,-16.3c-7.3,-3.9 -16.2,-2 -21.3,4.2c-1.5,-3.2 -4,-5.9 -7.4,-7.7c-4.4,-2.4 -9.4,-2.6 -13.8,-1c-1.3,-6.8 -4.8,-12.6 -9.8,-16.6m28.2,44.6c-0.1,-0.1 -0.2,-0.2 -0.3,-0.3c0.2,-0.2 0.4,-0.5 0.6,-0.7c0.1,0.2 0.2,0.4 0.3,0.5c-0.2,0.2 -0.4,0.3 -0.6,0.5z" fill="#FFFFFF"/>
   </g>
  </g>
  <line stroke="#000" stroke-linecap="undefined" stroke-linejoin="undefined" id="svg_8" y2="229" x2="600" y1="0" x1="600" stroke-width="1.5" fill="none"/>
 </g>
</svg>