<svg width="184.4" height="500" xmlns="http://www.w3.org/2000/svg">

 <g>
  <title>background</title>
  <rect fill="none" id="canvas_background" height="502" width="186.4" y="-1" x="-1"/>
 </g>
 <g>
  <title>Layer 1</title>
  <g stroke="null" id="svg_1">
   <g stroke="null" id="svg_2">
    <g stroke="null" id="svg_3">
     <path stroke="null" id="svg_4" d="m115.3,45.8l-22.8,0l0,190.6l24.1,0c3.8,-28.4 12.6,-98.8 12.9,-132.2c0.1,-17.8 -6.5,-39.4 -14.2,-58.4z" fill="#FF3351"/>
     <path stroke="null" id="svg_5" d="m123.8,45.8l-8.5,0c7.7,19 14.3,40.6 14.1,58.4c-0.3,33.4 -9.1,103.8 -12.9,132.2l12.9,0l11.4,-90.1c4.4,-34.6 -1.7,-69.5 -17,-100.5z" fill="#D62E40"/>
     <path stroke="null" id="svg_6" d="m92.5,0l0,35.5l18.5,0c-6.5,-14.6 -13,-26.7 -16.5,-32.9l-2,-2.6z" fill="#FF3351"/>
     <path stroke="null" id="svg_7" d="m102,11.8l-7.5,-9.2c3.5,6.2 10,18.3 16.4,32.9l7.3,0c-4.6,-8.2 -10.1,-16.2 -16.2,-23.7z" fill="#D62E40"/>
    </g>
    <g stroke="null" id="svg_8">
     <g stroke="null" id="svg_9">
      <g stroke="null" id="svg_10">
       <g stroke="null" id="svg_11">
        <path stroke="null" id="svg_12" d="m60.6,45.8c-15.3,31 -21.4,65.9 -17,100.5l11.4,90.1l37,0l0.5,-190.6l-31.9,0z" fill="#FF475A"/>
       </g>
      </g>
      <g stroke="null" id="svg_13">
       <g stroke="null" id="svg_14">
        <polygon stroke="null" id="svg_15" points="92.5,45.8 92,236.4 92.5,236.4 92.5,45.8       " fill="#FF475A"/>
       </g>
      </g>
      <g stroke="null" id="svg_16">
       <g stroke="null" id="svg_17">
        <path stroke="null" id="svg_18" d="m92.5,35.5l0,10.3l31.3,0c-1.7,-3.5 -3.5,-6.9 -5.5,-10.3l-25.8,0z" fill="#C90B26"/>
       </g>
      </g>
      <g stroke="null" id="svg_19">
       <g stroke="null" id="svg_20">
        <path stroke="null" id="svg_21" d="m92.5,35.5l-26.4,0c-2,3.4 -3.8,6.8 -5.5,10.3l31.8,0l0,-10.3l0.1,0z" fill="#D62E40"/>
       </g>
      </g>
      <g stroke="null" id="svg_22">
       <g stroke="null" id="svg_23">
        <rect stroke="null" id="svg_24" height="10.3" fill="#C90B26" y="35.5" x="92.5"/>
       </g>
      </g>
      <g stroke="null" id="svg_25">
       <g stroke="null" id="svg_26">
        <path stroke="null" id="svg_27" d="m82.4,11.8c-6.1,7.5 -11.5,15.5 -16.3,23.7l26.3,0l0,-35.5l-10,11.8z" fill="#FF4A65"/>
       </g>
      </g>
     </g>
     <g stroke="null" id="svg_28">
      <g stroke="null" id="svg_29">
       <g stroke="null" id="svg_30">
        <g stroke="null" id="svg_31">
         <path stroke="null" id="svg_32" d="m92,260.9l12.4,0c13.9,0 25.1,-10.9 25.1,-24.3l0,-0.2l-37.5,0l0,24.5z" fill="#FFB93B"/>
        </g>
       </g>
       <g stroke="null" id="svg_33">
        <g stroke="null" id="svg_34">
         <path stroke="null" id="svg_35" d="m124.5,170.1l35.2,26.3c5.9,4.4 10.1,10.6 11.9,17.6l12.6,49.1c1.4,5.4 0.3,13.7 -5.4,13.8l-3.3,-3.1c-3.4,0 -6.5,-1.8 -8.1,-4.7l-17,-32.7l-33.8,0l7.9,-66.3z" fill="#FF475A"/>
        </g>
       </g>
       <g stroke="null" id="svg_36">
        <g stroke="null" id="svg_37">
         <path stroke="null" id="svg_38" d="m123.7,177.7l36,24c5.9,4.4 10.1,10.6 11.9,17.6l12.6,49.1c1.4,5.4 -2.8,10.6 -8.5,10.7l-0.2,0c-3.4,0 -6.5,-1.8 -8.1,-4.7l-17,-32.7l-33.8,-5.2l7.1,-58.8z" fill="#C90B26"/>
        </g>
       </g>
      </g>
      <g stroke="null" id="svg_39">
       <g stroke="null" id="svg_40">
        <g stroke="null" id="svg_41">
         <path stroke="null" id="svg_42" d="m92.5,260.9l-12.4,0c-13.9,0 -25.1,-10.9 -25.1,-24.3l0,-0.2l37.5,0l0,24.5z" fill="#FFCE76"/>
        </g>
       </g>
      </g>
     </g>
    </g>
    <path stroke="null" id="svg_43" d="m93.8,72.2c-0.1,0 -0.2,0 -0.2,0c-13.8,0 -24.9,10.8 -24.9,24.1c0,13.3 11.1,24.1 24.9,24.1c0.1,0 0.2,0 0.2,0c13.6,-0.1 24.7,-10.8 24.7,-24c-0.1,-13.4 -11.1,-24.1 -24.7,-24.2z" fill="#D62E40"/>
    <g stroke="null" id="svg_44">
     <path stroke="null" id="svg_45" d="m92,112.2c-10,0 -18.2,-7.9 -18.2,-17.5c0,-9.7 8.1,-17.5 18.2,-17.5c0.1,0 0.2,0 0.2,0l0,-6.5c-0.1,0 -0.2,0 -0.2,0c-13.8,0 -24.9,10.8 -24.9,24.1c0,13.3 11.1,24.1 24.9,24.1c0.1,0 0.2,0 0.2,0l0,-6.5c-0.1,-0.2 -0.1,-0.2 -0.2,-0.2z" fill="#B70404"/>
     <path stroke="null" id="svg_46" d="m116.9,94.7c0,-13.2 -11,-23.9 -24.7,-24l0,6.5c9.9,0.1 17.9,7.9 17.9,17.5c0,9.6 -8,17.4 -17.9,17.5l0,6.5c13.7,-0.1 24.7,-10.8 24.7,-24z" fill="#C90B26"/>
     <path stroke="null" id="svg_47" d="m73.8,94.7c0,9.7 8.1,17.5 18.2,17.5c0.1,0 0.2,0 0.2,0l0,-35.1c-0.1,0 -0.2,0 -0.2,0c-10.1,0 -18.2,7.9 -18.2,17.6z" fill="#001142"/>
     <path stroke="null" id="svg_48" d="m110.1,94.7c0,-9.6 -8,-17.4 -17.9,-17.5l0,35.1c9.9,-0.2 17.9,-8 17.9,-17.6z" fill="#092159"/>
    </g>
    <circle stroke="null" id="svg_49" r="2.3" cy="88.3" cx="83.8" fill="#F1F2F2"/>
    <g stroke="null" id="svg_50" opacity="0.55">
     <path stroke="null" id="svg_51" d="m59.2,238.8c0,0 -1.5,-14.3 -3.4,-35.7c-0.9,-10.7 -2,-23.2 -2.9,-36.6c-0.5,-6.7 -0.9,-13.6 -1.3,-20.7c-0.4,-7 -0.7,-14.2 -0.9,-21.4c-0.2,-7.2 -0.3,-14.4 -0.2,-21.5c0.1,-1.9 0.1,-3.5 0.3,-5.3c0.2,-1.8 0.4,-3.6 0.6,-5.3c0.5,-3.5 1.2,-6.9 2,-10.2c3.3,-13.2 8.5,-24.8 13.4,-34.3c5,-9.5 9.9,-17.1 13.4,-22.2c3.6,-5.2 5.8,-8 5.8,-8s-2.1,2.9 -5.5,8.1c-3.3,5.3 -7.9,13 -12.6,22.6c-4.6,9.6 -9.3,21.3 -12.1,34.3c-0.7,3.2 -1.2,6.6 -1.6,9.9c-0.2,1.7 -0.3,3.4 -0.4,5.1c-0.1,1.7 -0.1,3.5 -0.1,5.2c0.1,7 0.4,14.1 0.9,21.2c0.4,7.1 1,14.2 1.6,21.2c0.6,7 1.3,13.9 2,20.6c1.4,13.3 2.8,25.8 4.1,36.4c2.6,21.3 4.5,35.4 4.5,35.4l-7.6,1.2z" fill="#FF6178"/>
    </g>
    <g stroke="null" id="svg_52">
     <g stroke="null" id="svg_53">
      <path stroke="null" id="svg_54" d="m60,170.1l-35.2,26.3c-5.9,4.4 -10.1,10.6 -11.9,17.6l-12.6,49.2c-1.4,5.4 -1.9,13.7 3.9,13.8l4.8,-3.1c3.4,0 6.5,-1.8 8.1,-4.7l17,-32.7l33.3,-0.1l-7.4,-66.3z" fill="#FF3351"/>
     </g>
    </g>
    <g stroke="null" id="svg_55">
     <g stroke="null" id="svg_56">
      <path stroke="null" id="svg_57" d="m60.7,176.6l-35.9,26.3c-5.9,4.4 -10.1,10.6 -11.9,17.6l-12.6,49.1c-1.4,5.4 2.8,10.6 8.5,10.7l0.2,0c3.4,0 6.5,-1.8 8.1,-4.7l17,-32.7l33.3,-6.5l-6.7,-59.8z" fill="#D62E40"/>
     </g>
    </g>
   </g>
   <polygon stroke="null" id="svg_58" points="60.7,176.6 117.5,233.4 116.6,236.4 67.3,236.4  " fill="#D62E40" opacity="0.15"/>
   <g stroke="null" id="svg_59">
    <g stroke="null" id="svg_60">
     <path stroke="null" id="svg_61" d="m92.5,342.9l0,-73.2l-0.2,0c-11.1,0 -20.2,12.5 -20,29.2c0.1,17.8 20.2,44 20.2,44z" fill="#FF3636"/>
    </g>
   </g>
   <g stroke="null" id="svg_62">
    <g stroke="null" id="svg_63">
     <path stroke="null" id="svg_64" d="m92.5,342.9l0,-73.2l0.2,0c11.1,0 20.2,12.5 20,29.2c-0.1,17.8 -20.2,44 -20.2,44z" fill="#FF2929"/>
    </g>
   </g>
   <g stroke="null" id="svg_65">
    <g stroke="null" id="svg_66">
     <path stroke="null" id="svg_67" d="m91.9,321.3l0.6,0.5l0,-50l-0.1,0c-7.6,0 -13.7,8.8 -13.7,19.7l0,0.2c1.4,12.1 6.2,22.8 13.2,29.6z" fill="#FFCF7B"/>
    </g>
   </g>
   <g stroke="null" id="svg_68">
    <g stroke="null" id="svg_69">
     <path stroke="null" id="svg_70" d="m93,321.3l-0.6,0.5l0,-16.8l0,-33.2l0.1,0c7.6,0 13.7,8.8 13.7,19.7l0,0.2c-1.4,12.1 -6.2,22.8 -13.2,29.6z" fill="#FFC95C"/>
    </g>
   </g>
   <path stroke="null" id="svg_71" d="m86.1,280.6l0,-0.6c0.2,-3.7 2.6,-6.9 6.1,-8.1l0.1,0l0,31.4l-0.1,-0.1c-4.3,-6.7 -6.5,-14.6 -6.1,-22.6z" fill="#FFC95C"/>
   <path stroke="null" id="svg_72" d="m98.6,280.6l0,-0.6c-0.2,-3.7 -2.6,-6.9 -6.1,-8.1l-0.1,0l0,31.4l0.1,-0.1c4.3,-6.7 6.4,-14.6 6.1,-22.6z" fill="#FFC95C"/>
  </g>
  <line stroke-linecap="undefined" stroke-linejoin="undefined" id="svg_74" y2="415.949997" x2="87.700012" y1="270.949997" x1="22.700012" stroke-width="1.5" stroke="#000" fill="none"/>
  <line stroke-linecap="undefined" stroke-linejoin="undefined" id="svg_75" y2="413.949997" x2="90.700012" y1="258.949997" x1="170.700012" stroke-width="1.5" stroke="#000" fill="none"/>
  <line stroke-linecap="undefined" stroke-linejoin="undefined" id="svg_76" y2="502.5" x2="88.700012" y1="414.5" x1="88.700012" fill-opacity="null" stroke-opacity="null" stroke-width="1.5" stroke="#000" fill="none"/>
  <ellipse ry="14.5" rx="11.5" id="svg_77" cy="411" cx="89.200012" fill-opacity="null" stroke-opacity="null" stroke-width="1.5" stroke="#000" fill="none"/>
 </g>
</svg>